<svg xmlns="http://www.w3.org/2000/svg" fill="currentColor" viewBox="0 0 24 24" class="w-7 h-7">
      <path d="M12 .5C5.65.5.5 5.65.5 12c0 5.1 3.3 9.4 7.9 10.9.6.1.8-.2.8-.5v-2c-3.2.7-3.9-1.6-3.9-1.6-.5-1.3-1.1-1.6-1.1-1.6-.9-.6.1-.6.1-.6 1 .1 1.5 1.1 1.5 1.1.9 1.5 2.4 1.1 3 .8.1-.7.3-1.1.6-1.4-2.6-.3-5.4-1.3-5.4-5.8 0-1.3.5-2.4 1.1-3.2-.1-.3-.5-1.6.1-3.3 0 0 .9-.3 3.3 1.1a11.6 11.6 0 0 1 6 0c2.4-1.4 3.3-1.1 3.3-1.1.6 1.7.2 3 .1 3.3.7.8 1.1 1.9 1.1 3.2 0 4.5-2.8 5.5-5.4 5.8.4.3.7.9.7 1.8v2.7c0 .3.2.6.8.5 4.6-1.5 7.9-5.8 7.9-10.9C23.5 5.65 18.35.5 12 .5z"/>
    </svg>